<?xml version="1.0" standalone="no"?>
<!DOCTYPE svg PUBLIC "-//W3C//DTD SVG 20010904//EN"
 "http://www.w3.org/TR/2001/REC-SVG-20010904/DTD/svg10.dtd">
<svg version="1.0" xmlns="http://www.w3.org/2000/svg"
 width="500.000000pt" height="500.000000pt" viewBox="0 0 500.000000 500.000000"
 preserveAspectRatio="xMidYMid meet">

<g transform="translate(0.000000,500.000000) scale(0.100000,-0.100000)"
fill="#000000" stroke="none">
<path d="M2464 4743 c-11 -8 -18 -18 -17 -23 2 -5 -5 -6 -14 -3 -12 5 -14 3
-8 -7 5 -9 4 -11 -3 -6 -14 8 -73 -24 -66 -36 4 -7 -8 -12 -27 -10 -3 0 -6
-16 -7 -36 -1 -21 -9 -41 -19 -47 -9 -5 -28 -21 -42 -33 l-26 -24 38 22 c21
12 40 21 42 18 2 -2 5 -29 6 -60 2 -45 5 -55 17 -50 11 4 13 1 7 -8 -6 -10 -4
-12 8 -7 9 3 19 1 23 -5 5 -7 2 -8 -7 -4 -8 4 -3 -2 10 -13 15 -14 31 -19 44
-15 12 4 17 2 13 -4 -3 -6 10 -20 29 -32 33 -21 37 -21 60 -6 14 9 25 19 25
21 0 3 -11 -2 -25 -11 -23 -15 -27 -15 -50 0 -14 9 -25 19 -25 22 0 4 11 -1
25 -10 21 -14 29 -14 48 -4 12 7 28 11 36 9 8 -1 10 2 6 10 -5 7 -3 10 6 7 18
-7 90 32 83 44 -3 5 2 8 12 6 17 -3 19 6 22 100 3 113 2 112 71 87 67 -23 101
-52 101 -85 0 -30 22 -60 44 -60 25 0 34 -97 16 -162 -14 -47 -36 -55 -68 -23
-25 25 -49 34 -36 13 4 -7 3 -8 -5 -4 -6 4 -9 11 -6 16 3 5 -5 14 -17 21 -22
12 -22 11 -8 -6 14 -17 14 -17 -7 -4 -12 7 -20 15 -18 18 6 5 -27 30 -41 31
-5 0 -19 -7 -30 -16 -18 -14 -18 -15 6 -4 24 11 24 10 5 -5 -11 -8 -25 -13
-33 -10 -7 2 -10 1 -7 -5 3 -5 -5 -14 -17 -21 -22 -12 -22 -11 -8 6 10 12 -3
8 -40 -13 l-55 -32 -3 -107 -2 -108 32 -18 33 -19 -20 23 -20 22 27 -18 c15
-9 26 -21 23 -25 -3 -5 4 -11 15 -15 30 -10 24 -22 -21 -45 -37 -20 -42 -20
-58 -6 -35 32 -86 14 -104 -36 -5 -15 -19 -18 -86 -18 -112 0 -174 22 -238 86
-59 59 -78 110 -70 192 6 57 44 148 83 200 14 18 23 36 20 39 -10 10 -44 -39
-84 -116 -33 -67 -37 -83 -37 -150 1 -91 22 -140 86 -195 60 -51 125 -70 240
-71 64 0 101 -4 112 -13 25 -21 68 -11 86 21 18 33 109 75 157 73 37 -2 67 12
58 26 -4 6 -3 8 3 5 12 -7 68 17 96 41 9 8 17 29 17 46 0 17 21 72 46 123 50
99 54 123 43 292 -5 68 -26 97 -62 87 -10 -2 -39 7 -65 20 -26 13 -71 28 -100
33 -62 10 -60 13 -65 -124 l-3 -90 -2 98 c-1 54 -7 107 -12 118 -13 23 -60 48
-79 41 -8 -2 -11 0 -8 5 7 10 -49 46 -74 48 -9 1 -25 -5 -35 -12z m26 3 c0 -2
-8 -10 -17 -17 -16 -13 -17 -12 -4 4 13 16 21 21 21 13z m54 -25 c-2 -3 -12 3
-22 13 -16 17 -16 18 5 5 12 -7 20 -15 17 -18z m106 -57 c0 -2 -9 0 -20 6 -11
6 -20 13 -20 16 0 2 9 0 20 -6 11 -6 20 -13 20 -16z m-88 -377 c-6 -7 -13 -58
-15 -113 l-3 -99 -2 107 c-2 101 1 112 27 117 2 1 -1 -5 -7 -12z m218 -171 c0
-2 -8 -10 -17 -17 -16 -13 -17 -12 -4 4 13 16 21 21 21 13z m85 -46 c-3 -5
-16 -15 -28 -21 -21 -10 -21 -9 2 10 25 23 36 27 26 11z"/>
<path d="M2259 4374 c-12 -15 -12 -17 0 -9 10 5 12 4 7 -4 -4 -7 -15 -11 -24
-9 -20 3 -103 -42 -97 -53 3 -4 -2 -10 -11 -13 -10 -4 -13 -2 -8 6 4 7 3 8 -4
4 -8 -5 -12 -44 -12 -115 0 -104 1 -109 25 -125 35 -23 45 -20 15 5 -24 19
-24 20 -2 9 13 -6 26 -18 29 -26 3 -8 23 -25 46 -38 31 -19 45 -22 64 -15 17
6 22 6 17 -2 -4 -7 16 1 44 17 28 15 49 32 46 36 -3 4 6 12 18 19 22 12 22 11
8 -6 -14 -17 -14 -17 7 -5 12 8 20 18 17 22 -3 4 2 5 11 2 14 -6 15 7 13 106
-2 91 -6 114 -18 117 -13 4 -13 3 0 -6 8 -6 11 -11 5 -11 -5 0 -21 12 -34 26
-13 14 -29 23 -36 20 -16 -6 -67 28 -58 39 5 4 0 5 -9 2 -11 -4 -17 -2 -15 5
4 19 -29 20 -44 2z m-29 -28 c0 -2 -8 -10 -17 -17 -16 -13 -17 -12 -4 4 13 16
21 21 21 13z"/>
<path d="M2340 4356 c0 -3 9 -10 20 -16 11 -6 20 -8 20 -6 0 3 -9 10 -20 16
-11 6 -20 8 -20 6z"/>
<path d="M1900 3676 c0 -76 24 -97 85 -78 17 6 20 16 20 70 0 77 -13 82 -17 6
-3 -60 -20 -83 -52 -71 -12 5 -16 20 -16 67 0 33 -4 60 -10 60 -5 0 -10 -24
-10 -54z"/>
<path d="M2052 3658 l1 -73 6 60 6 60 40 -52 c22 -29 43 -52 48 -53 4 0 6 30
5 68 l-1 67 -6 -55 -6 -55 -38 53 c-21 28 -43 52 -48 52 -5 0 -8 -33 -7 -72z"/>
<path d="M2210 3665 c0 -36 3 -65 8 -65 4 0 7 29 7 65 0 36 -3 65 -7 65 -5 0
-8 -29 -8 -65z"/>
<path d="M2273 3668 c12 -35 26 -63 32 -63 11 0 59 114 52 121 -3 3 -13 -18
-23 -46 -10 -27 -21 -50 -25 -50 -4 0 -15 23 -24 50 -9 28 -21 50 -26 50 -4 0
2 -28 14 -62z"/>
<path d="M2390 3665 l0 -65 38 2 c36 1 36 1 5 5 -27 4 -33 9 -33 29 0 18 5 24
23 25 l22 0 -23 10 c-30 12 -25 41 8 50 23 6 22 7 -7 8 l-33 1 0 -65z"/>
<path d="M2502 3663 l2 -68 3 63 c3 54 7 62 24 62 27 0 37 -30 15 -46 -17 -12
-16 -14 5 -43 13 -17 27 -31 31 -31 5 0 -1 13 -13 29 -20 27 -21 31 -5 46 23
24 4 55 -34 55 l-30 0 2 -67z"/>
<path d="M2622 3718 c-20 -20 -14 -35 24 -57 45 -27 43 -57 -4 -55 -17 1 -29
-2 -26 -7 7 -12 41 -11 65 1 30 16 23 46 -16 69 -44 26 -46 48 -2 54 l32 4
-30 1 c-17 1 -36 -3 -43 -10z"/>
<path d="M2735 3661 c0 -38 3 -67 8 -64 4 2 7 33 7 69 0 35 -3 64 -7 64 -5 0
-8 -31 -8 -69z"/>
<path d="M2798 3723 c20 -4 22 -10 22 -64 0 -33 4 -59 10 -59 6 0 10 26 10 59
0 54 2 60 23 64 12 2 -3 4 -33 4 -30 0 -45 -2 -32 -4z"/>
<path d="M2907 3663 c-15 -36 -25 -69 -22 -71 3 -3 10 9 16 26 9 26 16 32 40
32 22 0 30 -6 35 -25 3 -14 10 -25 15 -25 11 0 -36 123 -48 127 -5 2 -21 -27
-36 -64z m43 38 c0 -5 3 -16 6 -25 4 -12 0 -16 -16 -16 -16 0 -20 4 -16 16 3
9 6 20 6 25 0 5 5 9 10 9 6 0 10 -4 10 -9z"/>
<path d="M3027 3723 c-17 -16 -4 -43 28 -62 19 -11 35 -27 35 -35 0 -18 -27
-28 -53 -20 -13 4 -17 2 -13 -5 11 -17 51 -13 70 8 21 23 12 46 -25 61 -16 7
-29 16 -29 21 0 5 0 12 0 17 -1 4 14 10 32 13 l33 6 -36 2 c-20 0 -39 -2 -42
-6z"/>
<path d="M2455 3515 c-48 -47 -19 -115 49 -115 38 0 76 36 76 72 0 27 -45 68
-75 68 -14 0 -37 -11 -50 -25z m83 -1 c26 -18 30 -65 6 -88 -22 -23 -71 -20
-84 3 -15 29 -12 62 7 83 20 22 42 23 71 2z"/>
<path d="M2736 3519 c-34 -27 -36 -81 -4 -103 50 -35 118 -8 118 47 0 38 -7
50 -37 66 -31 16 -47 14 -77 -10z m78 -5 c19 -18 21 -75 4 -92 -21 -21 -66
-14 -84 13 -36 55 34 125 80 79z"/>
<path d="M2906 3519 c-19 -15 -26 -30 -26 -54 0 -42 29 -65 82 -65 36 0 38 2
38 30 0 17 -4 30 -10 30 -5 0 -10 -11 -10 -25 0 -21 -5 -25 -29 -25 -35 0 -54
22 -54 62 0 36 27 61 61 55 12 -2 22 0 22 4 0 17 -47 9 -74 -12z"/>
<path d="M1948 3523 c20 -4 22 -10 22 -64 0 -33 4 -59 10 -59 6 0 10 26 10 59
0 54 2 60 23 64 12 2 -3 4 -33 4 -30 0 -45 -2 -32 -4z"/>
<path d="M2058 3465 l-3 -65 40 1 c37 1 38 2 10 8 -39 8 -48 47 -13 60 l23 10
-22 0 c-25 1 -33 35 -10 44 7 4 6 6 -5 6 -13 1 -17 -11 -20 -64z"/>
<path d="M2160 3465 c0 -45 4 -65 13 -65 9 0 11 18 9 65 -5 84 -22 84 -22 0z"/>
<path d="M2216 3505 c-9 -13 -16 -29 -16 -36 0 -16 40 -69 52 -69 6 0 -2 16
-17 36 l-27 36 21 29 c12 16 17 29 12 29 -5 0 -16 -11 -25 -25z"/>
<path d="M2280 3465 c0 -77 18 -88 22 -13 l3 52 40 -52 c21 -29 43 -52 47 -52
4 0 7 30 6 68 l-1 67 -6 -55 -6 -55 -40 53 c-53 70 -65 68 -65 -13z"/>
<path d="M2610 3465 l0 -65 40 0 c22 0 40 4 40 8 0 5 -13 7 -30 4 l-30 -4 0
61 c0 34 -4 61 -10 61 -6 0 -10 -28 -10 -65z"/>
<path d="M3030 3465 c0 -37 4 -65 10 -65 6 0 10 28 10 65 0 37 -4 65 -10 65
-6 0 -10 -28 -10 -65z"/>
<path d="M2011 3326 c-16 -19 -6 -38 30 -58 41 -24 36 -54 -9 -52 -17 1 -29
-2 -26 -7 7 -12 41 -11 65 1 30 17 23 46 -17 69 -40 24 -40 46 -1 46 15 -1 27
3 27 7 0 14 -57 9 -69 -6z"/>
<path d="M2120 3286 c0 -60 17 -87 53 -85 20 1 20 2 -3 8 -23 6 -25 12 -28 69
-4 76 -22 83 -22 8z"/>
<path d="M2208 3275 c-2 -45 1 -66 10 -70 9 -3 12 14 12 65 0 88 -17 92 -22 5z"/>
<path d="M2279 3323 c0 -10 -4 -39 -8 -65 -4 -27 -4 -48 1 -48 4 0 8 15 8 33
0 17 3 43 7 56 5 21 9 17 33 -35 l27 -59 23 52 c26 61 40 60 40 -2 0 -24 5
-47 11 -51 8 -4 9 3 5 22 -3 16 -7 48 -8 72 -3 57 -21 53 -48 -10 l-22 -53
-23 53 c-24 52 -44 68 -46 35z"/>
<path d="M2465 3275 c0 -37 4 -65 10 -65 6 0 9 25 8 60 -2 53 0 60 17 60 25 0
35 -17 19 -36 -10 -12 -8 -17 7 -29 16 -12 17 -17 6 -34 -7 -12 -8 -21 -2 -21
18 0 29 34 17 55 -6 11 -11 31 -11 45 -1 21 -6 25 -36 28 l-35 3 0 -66z"/>
<path d="M2620 3331 c0 -5 -3 -18 -6 -28 -5 -17 -5 -17 6 1 10 15 14 16 21 5
17 -27 10 -42 -16 -37 -20 4 -26 0 -35 -25 -14 -41 -12 -47 6 -14 15 29 61 39
68 15 12 -41 17 -50 22 -45 10 10 -40 137 -53 137 -7 0 -13 -4 -13 -9z"/>
<path d="M2706 3313 c14 -57 31 -97 42 -101 7 -2 12 1 12 7 0 6 -4 11 -9 11
-5 0 -14 23 -21 50 -7 28 -16 53 -21 56 -6 3 -7 -6 -3 -23z"/>
<path d="M2776 3308 c-3 -17 -4 -33 -1 -36 3 -3 5 2 5 11 0 10 5 17 10 17 6 0
10 -7 10 -15 0 -9 7 -32 15 -53 13 -29 18 -34 25 -22 5 8 10 22 10 30 0 13 -1
13 -10 0 -7 -12 -11 -10 -18 10 -5 14 -13 40 -17 58 -8 41 -21 41 -29 0z"/>
<path d="M2863 3327 c0 -7 -3 -26 -6 -42 -5 -19 -4 -24 2 -15 13 24 22 70 13
70 -5 0 -9 -6 -9 -13z"/>
<path d="M2930 3336 c0 -3 -11 -35 -25 -71 -13 -36 -22 -65 -19 -65 3 0 10 14
15 30 9 24 17 30 39 30 23 0 30 -6 40 -32 7 -18 14 -28 17 -21 5 15 -42 126
-56 131 -6 2 -11 1 -11 -2z m30 -53 c0 -7 -9 -13 -20 -13 -23 0 -24 4 -9 32 9
17 13 18 20 7 5 -8 9 -20 9 -26z"/>
<path d="M813 2609 c13 -8 17 -24 17 -79 0 -77 10 -90 69 -90 43 0 61 31 61
106 0 41 4 64 13 67 6 3 -4 5 -23 5 -19 0 -29 -2 -22 -5 8 -3 12 -28 12 -73 0
-58 -3 -71 -19 -80 -25 -13 -27 -13 -45 6 -23 23 -22 129 2 143 13 8 6 10 -33
10 -39 0 -46 -2 -32 -10z"/>
<path d="M1008 2613 c16 -6 17 -144 0 -161 -9 -9 -5 -12 21 -12 29 0 31 1 17
16 -17 16 -23 114 -8 114 5 0 29 -29 53 -65 24 -35 50 -65 57 -65 9 0 12 23
12 84 0 58 4 86 13 89 6 3 -4 6 -23 6 -22 0 -30 -2 -22 -8 9 -5 12 -25 10 -61
l-3 -53 -43 61 c-35 51 -48 62 -70 61 -15 0 -21 -3 -14 -6z"/>
<path d="M1208 2613 c16 -6 17 -144 0 -161 -9 -9 -2 -12 33 -11 24 0 38 3 32
6 -9 3 -13 30 -13 83 0 53 4 80 13 83 6 3 -8 5 -33 5 -25 0 -39 -2 -32 -5z"/>
<path d="M1311 2583 c11 -21 27 -62 36 -90 9 -29 22 -53 28 -53 6 0 22 30 34
68 13 37 30 77 38 90 13 21 12 22 -19 22 -24 0 -29 -3 -18 -9 12 -8 12 -17 -3
-65 -10 -31 -20 -56 -22 -56 -2 0 -12 25 -22 56 -15 48 -15 57 -3 65 11 6 3 9
-26 9 l-42 0 19 -37z"/>
<path d="M1483 2609 c13 -8 17 -24 17 -79 0 -55 -4 -71 -17 -79 -13 -8 2 -10
60 -11 70 0 77 2 77 20 0 24 -15 27 -24 4 -4 -10 -15 -14 -33 -12 -24 3 -28 8
-31 40 -3 35 -1 37 30 41 l33 4 -33 1 c-31 2 -33 4 -30 35 2 25 8 33 26 35 14
2 29 -4 37 -15 14 -17 14 -17 15 5 0 21 -4 22 -72 22 -55 -1 -69 -3 -55 -11z"/>
<path d="M1648 2613 c8 -3 12 -30 12 -83 0 -53 -4 -80 -12 -83 -7 -3 7 -5 32
-5 25 0 39 2 33 5 -15 5 -18 76 -4 71 6 -1 20 -19 33 -38 14 -21 34 -36 48
-38 l25 -4 -21 24 c-34 37 -46 65 -30 71 23 9 26 47 5 68 -15 15 -32 19 -76
18 -32 0 -52 -3 -45 -6z m96 -25 c13 -21 -2 -51 -28 -56 -13 -3 -16 5 -16 38
0 33 3 41 16 38 9 -2 22 -11 28 -20z"/>
<path d="M1836 2601 c-26 -29 -16 -53 32 -79 33 -18 42 -29 40 -46 -4 -29 -43
-34 -58 -7 -13 26 -30 27 -30 2 0 -35 75 -44 103 -13 29 32 21 58 -25 84 -24
13 -44 31 -46 41 -5 24 28 34 43 14 16 -22 37 -22 33 1 -5 26 -69 29 -92 3z"/>
<path d="M1978 2613 c16 -6 17 -144 0 -161 -9 -9 -2 -12 33 -11 24 0 38 3 32
6 -9 3 -13 30 -13 83 0 53 4 80 13 83 6 3 -8 5 -33 5 -25 0 -39 -2 -32 -5z"/>
<path d="M2061 2593 l0 -28 16 23 c8 12 22 22 29 22 19 0 20 -156 2 -163 -7
-3 7 -5 32 -5 25 0 39 2 33 5 -19 7 -18 163 1 163 7 0 21 -10 29 -22 l16 -23
0 28 1 27 -80 0 -80 0 1 -27z"/>
<path d="M2275 2543 c-15 -43 -32 -84 -38 -90 -7 -10 -1 -13 24 -12 19 0 28 3
22 6 -7 2 -13 16 -13 29 0 23 3 25 37 22 28 -2 39 -8 41 -22 2 -10 -2 -22 -10
-27 -8 -6 2 -9 28 -9 l42 0 -19 38 c-11 20 -27 61 -36 90 -24 76 -44 70 -78
-25z m51 -1 c6 -30 5 -32 -21 -32 -21 0 -26 4 -21 16 3 9 9 27 12 41 8 30 21
19 30 -25z"/>
<path d="M2448 2609 c-11 -6 -18 -22 -18 -39 0 -23 8 -33 43 -52 45 -25 53
-44 24 -62 -15 -9 -22 -7 -38 13 -15 18 -23 21 -31 13 -31 -31 58 -58 94 -29
38 30 24 74 -32 97 -18 8 -30 20 -30 32 0 26 30 36 45 15 15 -21 35 -22 35 -3
0 25 -59 35 -92 15z"/>
<path d="M2631 2593 l0 -28 16 23 c8 12 22 22 29 22 19 0 20 -156 2 -163 -7
-3 7 -5 32 -5 25 0 39 2 33 5 -19 7 -18 163 1 163 7 0 21 -10 29 -22 l16 -23
0 28 1 27 -80 0 -80 0 1 -27z"/>
<path d="M2814 2604 c11 -10 16 -34 16 -74 0 -40 -5 -64 -16 -74 -14 -15 -9
-16 60 -16 69 0 76 2 76 20 0 23 -15 27 -24 5 -3 -9 -18 -15 -36 -15 -28 0
-30 2 -30 39 0 37 2 40 33 44 l32 4 -32 1 c-31 2 -33 5 -33 37 0 31 3 35 25
35 14 0 28 -7 31 -15 9 -22 24 -18 24 5 0 18 -7 20 -71 20 -64 0 -69 -1 -55
-16z"/>
<path d="M2978 2613 c16 -6 17 -144 0 -161 -9 -9 -2 -12 32 -11 25 0 39 3 33
6 -15 5 -18 73 -4 73 5 0 14 -14 21 -30 13 -32 37 -50 66 -50 16 0 15 2 -3 23
-11 12 -28 37 -39 54 l-18 33 34 35 34 35 -31 0 c-25 0 -30 -4 -26 -18 2 -10
-6 -27 -21 -41 l-26 -24 0 35 c0 20 6 39 13 41 6 3 -8 5 -33 5 -25 0 -39 -2
-32 -5z"/>
<path d="M3164 2604 c11 -10 16 -34 16 -74 0 -40 -5 -64 -16 -74 -14 -15 -12
-16 17 -16 26 0 30 3 21 12 -7 7 -12 39 -12 72 l0 60 50 -69 c28 -39 55 -71
60 -73 6 -2 10 28 10 77 0 66 3 82 18 90 14 8 9 10 -22 11 -35 0 -38 -2 -22
-13 13 -10 17 -24 14 -62 l-3 -50 -45 62 c-37 51 -50 63 -73 63 -26 0 -27 -1
-13 -16z"/>
<path d="M3385 2595 c-54 -53 -18 -155 54 -155 56 0 86 43 82 117 -3 59 -91
84 -136 38z m93 -15 c14 -28 10 -93 -8 -115 -32 -38 -70 -2 -70 65 0 76 48
107 78 50z"/>
<path d="M3564 2604 c11 -10 16 -34 16 -74 0 -40 -5 -64 -16 -74 -14 -15 -9
-16 60 -16 74 0 76 1 76 25 0 30 -16 33 -23 5 -4 -15 -14 -20 -36 -20 l-31 0
0 73 c0 43 5 78 12 85 9 9 3 12 -31 12 -39 0 -41 -1 -27 -16z"/>
<path d="M3758 2610 c-27 -16 -41 -74 -28 -115 31 -93 160 -65 160 35 0 53
-34 90 -82 90 -18 0 -41 -5 -50 -10z m76 -16 c10 -10 16 -33 16 -64 0 -73 -41
-105 -74 -58 -31 43 -10 138 29 138 7 0 21 -7 29 -16z"/>
<path d="M3964 2608 c-67 -32 -52 -150 21 -164 57 -10 85 1 85 35 0 16 6 32
13 34 6 3 -5 6 -26 6 -34 1 -36 -1 -26 -18 15 -22 5 -51 -16 -51 -47 0 -73 90
-39 138 17 25 52 29 60 7 8 -19 34 -20 34 -1 0 26 -64 35 -106 14z"/>
<path d="M4118 2613 c8 -3 12 -30 12 -83 0 -53 -4 -80 -12 -83 -7 -3 7 -5 32
-5 25 0 39 2 33 5 -9 3 -13 30 -13 83 0 53 4 80 13 83 6 3 -8 5 -33 5 -25 0
-39 -2 -32 -5z"/>
<path d="M1832 2248 c-7 -7 -12 -25 -12 -40 0 -22 8 -32 41 -48 31 -16 40 -26
37 -43 -4 -31 -38 -34 -59 -6 -20 26 -40 18 -23 -9 13 -21 65 -27 94 -12 35
19 24 71 -19 92 -44 22 -56 42 -36 58 13 10 19 10 35 -5 22 -20 48 -11 29 11
-14 17 -71 18 -87 2z"/>
<path d="M1968 2248 c7 -7 12 -39 12 -74 0 -73 15 -94 65 -94 52 0 65 21 65
100 0 45 4 70 13 73 6 3 -4 5 -23 5 -19 0 -29 -2 -22 -5 8 -3 12 -28 12 -73 0
-74 -13 -97 -50 -85 -18 6 -20 15 -20 80 0 49 4 75 13 78 6 3 -8 6 -32 6 -35
1 -42 -2 -33 -11z"/>
<path d="M2158 2253 c16 -6 17 -144 0 -161 -9 -9 -5 -12 21 -12 29 0 31 1 17
16 -17 16 -23 124 -8 124 4 0 18 -31 31 -70 12 -38 25 -70 30 -70 4 0 19 35
33 78 l26 77 1 -72 c1 -48 -3 -73 -11 -76 -7 -3 7 -5 32 -5 25 0 39 2 33 5 -9
3 -13 30 -13 83 0 53 4 80 13 83 6 3 -5 6 -25 6 -35 1 -37 -1 -53 -51 -10 -29
-21 -57 -25 -61 -3 -4 -15 20 -25 53 -18 59 -19 60 -54 59 -20 0 -30 -3 -23
-6z"/>
<path d="M2398 2248 c7 -7 12 -40 12 -78 0 -38 -5 -71 -12 -78 -9 -9 1 -12 45
-12 44 0 62 5 77 20 25 25 25 35 1 59 -17 17 -17 21 -4 34 20 19 9 53 -20 61
-12 3 -42 6 -66 6 -35 0 -42 -3 -33 -12z m80 -7 c19 -12 11 -55 -10 -59 -15
-3 -18 4 -18 32 0 37 5 42 28 27z m16 -93 c13 -21 -2 -51 -28 -56 -13 -3 -16
5 -16 38 0 33 3 41 16 38 9 -2 22 -11 28 -20z"/>
<path d="M2617 2228 c-8 -18 -20 -51 -27 -73 -7 -22 -19 -48 -28 -57 -14 -17
-13 -18 19 -18 23 0 30 3 20 9 -8 5 -11 16 -6 30 9 29 70 30 78 2 2 -11 0 -24
-6 -30 -8 -8 2 -11 33 -11 34 1 41 3 29 10 -9 5 -20 21 -23 35 -16 64 -49 135
-62 135 -7 0 -20 -15 -27 -32z m37 -50 c6 -25 4 -28 -19 -28 -28 0 -29 4 -14
50 13 35 21 29 33 -22z"/>
<path d="M2747 2254 c7 -3 24 -43 38 -90 15 -48 31 -84 38 -84 8 0 21 25 31
56 10 31 21 53 24 49 4 -3 14 -27 23 -53 24 -72 42 -66 64 24 10 42 25 83 33
90 11 12 9 14 -19 14 -24 0 -29 -3 -21 -12 10 -13 -6 -118 -18 -118 -3 0 -15
27 -26 61 -10 33 -23 60 -29 60 -5 0 -19 -28 -31 -63 l-21 -63 -17 54 c-12 40
-13 58 -5 68 9 10 3 13 -32 12 -24 0 -39 -3 -32 -5z"/>
<path d="M3065 2188 c-15 -40 -35 -81 -43 -90 -14 -17 -13 -18 18 -18 26 0 30
3 21 14 -19 23 -2 46 34 46 26 0 35 -5 40 -21 5 -14 2 -25 -6 -30 -9 -6 1 -9
30 -9 39 0 42 2 30 16 -8 9 -26 49 -40 88 -15 40 -33 72 -42 74 -10 2 -23 -19
-42 -70z m55 -25 c0 -7 -12 -13 -26 -13 -20 0 -25 4 -20 16 3 9 9 28 13 42 l6
27 13 -30 c7 -16 13 -36 14 -42z"/>
<path d="M564 1644 c11 -10 16 -34 16 -74 0 -40 -5 -64 -16 -74 -14 -15 -11
-16 33 -16 37 1 44 3 31 11 -11 6 -18 22 -18 39 0 27 3 30 33 31 l32 1 -30 7
c-26 5 -30 11 -33 44 -3 34 -1 37 23 37 14 0 28 -7 31 -15 9 -22 24 -18 24 5
0 18 -7 20 -71 20 -64 0 -69 -1 -55 -16z"/>
<path d="M755 1588 c-15 -40 -35 -81 -43 -90 -14 -17 -13 -18 18 -18 26 0 30
3 21 14 -19 23 -2 46 34 46 26 0 35 -5 40 -21 5 -14 2 -25 -6 -30 -9 -6 1 -9
30 -9 39 0 42 2 30 16 -8 9 -26 49 -40 88 -15 40 -33 72 -42 74 -10 2 -23 -19
-42 -70z m55 -25 c0 -7 -12 -13 -26 -13 -20 0 -25 4 -20 16 3 9 9 28 13 42 l6
27 13 -30 c7 -16 13 -36 14 -42z"/>
<path d="M908 1653 c8 -3 12 -30 12 -83 0 -53 -4 -80 -12 -83 -7 -3 7 -5 32
-5 25 0 39 2 33 5 -14 5 -18 73 -5 73 4 0 16 -15 27 -32 21 -38 33 -48 57 -48
15 0 11 9 -17 49 -19 26 -35 53 -35 59 0 5 16 24 35 41 l36 31 -37 0 c-28 0
-34 -3 -26 -12 7 -10 2 -23 -19 -48 l-29 -34 0 41 c0 24 5 43 13 46 6 3 -8 5
-33 5 -25 0 -39 -2 -32 -5z"/>
<path d="M1086 1652 c6 -4 14 -38 17 -76 6 -78 19 -96 72 -96 46 0 55 16 55
92 0 53 4 69 18 77 14 9 11 10 -17 11 -27 0 -32 -3 -23 -12 7 -7 12 -39 12
-75 0 -52 -3 -64 -20 -73 -14 -8 -26 -8 -40 0 -17 9 -20 21 -20 73 0 36 5 68
12 75 9 9 2 12 -32 12 -25 0 -40 -4 -34 -8z"/>
<path d="M1283 1649 c13 -8 17 -24 17 -79 0 -55 -4 -71 -17 -79 -13 -8 2 -10
60 -11 l77 0 0 27 0 27 -16 -22 c-11 -16 -24 -22 -42 -20 -26 3 -27 6 -30 73
-2 57 0 72 14 82 15 11 11 13 -32 13 -38 -1 -45 -3 -31 -11z"/>
<path d="M1437 1640 c-3 -11 -2 -22 3 -25 4 -3 10 4 13 15 3 11 12 20 21 20
13 0 16 -13 16 -79 0 -54 -4 -81 -12 -84 -7 -3 7 -6 32 -6 34 -1 41 2 32 11
-18 18 -16 158 2 158 8 0 22 -10 30 -22 l16 -22 0 27 c0 27 0 27 -74 27 -65 0
-74 -2 -79 -20z"/>
<path d="M1651 1593 c-13 -38 -30 -78 -37 -90 -14 -22 -13 -23 18 -23 22 0 29
3 20 9 -8 5 -12 17 -10 27 2 14 13 20 41 22 34 3 37 1 37 -22 0 -13 -6 -27
-12 -29 -7 -3 6 -6 30 -6 42 -1 42 -1 28 22 -7 12 -24 52 -36 90 -15 47 -27
67 -38 67 -12 0 -24 -20 -41 -67z m58 -35 c1 -5 -10 -8 -24 -8 -28 0 -31 13
-14 57 l11 28 13 -35 c8 -19 14 -38 14 -42z"/>
<path d="M1815 1644 c-25 -25 -14 -55 30 -85 44 -30 49 -46 22 -63 -15 -9 -22
-7 -37 12 -22 27 -30 28 -30 2 0 -39 89 -39 110 0 16 30 5 52 -37 75 -21 11
-39 28 -41 38 -5 24 28 35 43 14 15 -21 35 -22 35 -3 0 29 -69 36 -95 10z"/>
<path d="M2018 1653 c8 -3 12 -30 12 -83 0 -53 -4 -80 -12 -83 -7 -3 7 -5 32
-5 25 0 39 2 33 5 -15 5 -18 76 -4 71 6 -1 20 -19 33 -38 14 -21 34 -36 48
-38 l25 -4 -21 24 c-34 37 -46 65 -30 71 23 9 26 47 5 68 -15 15 -32 19 -76
18 -32 0 -52 -3 -45 -6z m96 -25 c13 -21 -2 -51 -28 -56 -13 -3 -16 5 -16 38
0 33 3 41 16 38 9 -2 22 -11 28 -20z"/>
<path d="M2198 1653 c16 -6 17 -144 0 -161 -9 -9 4 -12 60 -12 67 0 72 1 72
22 0 20 -1 20 -18 5 -10 -10 -28 -17 -40 -17 -19 0 -22 6 -22 39 0 37 2 40 33
44 l32 4 -32 1 c-31 2 -33 5 -33 37 0 30 3 35 25 35 13 0 29 -8 34 -17 9 -16
10 -16 11 5 0 21 -4 22 -67 21 -38 0 -62 -3 -55 -6z"/>
<path d="M2364 1644 c11 -10 16 -34 16 -74 0 -40 -5 -64 -16 -74 -14 -15 -12
-16 27 -16 34 0 40 3 31 12 -14 14 -16 71 -3 66 6 -1 20 -19 33 -38 22 -33 28
-35 83 -38 38 -1 55 1 46 7 -8 5 -11 16 -6 30 9 29 70 30 78 2 2 -11 0 -24 -6
-30 -8 -8 1 -11 33 -11 37 0 41 2 28 13 -9 6 -25 41 -37 77 -12 36 -25 71 -30
79 -16 26 -36 4 -60 -65 -39 -113 -53 -119 -102 -42 l-33 51 39 34 38 33 -39
0 c-27 0 -35 -3 -25 -9 12 -8 9 -16 -15 -48 l-29 -38 -3 33 c-2 18 2 40 9 48
10 12 5 14 -30 14 -39 0 -41 -1 -27 -16z m270 -66 c6 -25 4 -28 -19 -28 -28 0
-29 4 -14 50 13 35 21 29 33 -22z"/>
<path d="M2732 1643 c24 -27 58 -100 58 -122 0 -11 -8 -25 -17 -30 -14 -8 -7
-10 32 -10 28 0 44 3 38 6 -22 8 -14 66 16 121 l29 52 -31 -1 c-18 0 -26 -3
-19 -6 16 -6 15 -28 -4 -65 l-16 -31 -18 39 c-12 26 -14 43 -7 52 7 9 -1 12
-33 12 -40 0 -42 -1 -28 -17z"/>
<path d="M2951 1593 c-13 -38 -30 -78 -37 -90 -14 -22 -13 -23 18 -23 22 0 29
3 20 9 -8 5 -12 17 -10 27 2 14 13 20 41 22 34 3 37 1 37 -22 0 -13 -6 -27
-12 -29 -7 -3 6 -6 30 -6 42 -1 42 -1 28 22 -7 12 -24 52 -36 90 -15 47 -27
67 -38 67 -12 0 -24 -20 -41 -67z m58 -35 c1 -5 -10 -8 -24 -8 -28 0 -31 13
-14 57 l11 28 13 -35 c8 -19 14 -38 14 -42z"/>
<path d="M3115 1644 c-25 -25 -14 -55 30 -85 44 -30 49 -46 22 -63 -15 -9 -22
-7 -37 12 -22 27 -30 28 -30 3 0 -35 63 -43 100 -13 32 26 21 62 -27 87 -21
11 -39 28 -41 38 -5 24 28 35 43 14 15 -21 35 -22 35 -3 0 29 -69 36 -95 10z"/>
<path d="M3285 1583 c-15 -43 -32 -84 -38 -90 -7 -10 -1 -13 24 -12 19 0 28 3
22 6 -7 2 -13 16 -13 29 0 23 3 25 37 22 28 -2 39 -8 41 -22 2 -10 -2 -22 -10
-27 -8 -6 2 -9 28 -9 l42 0 -19 38 c-11 20 -27 61 -36 90 -24 76 -44 70 -78
-25z m51 -1 c6 -30 5 -32 -21 -32 -21 0 -26 4 -21 16 3 9 9 27 12 41 8 30 21
19 30 -25z"/>
<path d="M3522 1648 c-7 -7 -12 -25 -12 -40 0 -22 8 -32 41 -48 31 -16 40 -26
37 -43 -4 -31 -38 -34 -59 -6 -20 26 -40 18 -23 -9 13 -21 65 -27 94 -12 35
19 24 71 -19 92 -44 22 -56 42 -36 58 13 10 19 10 35 -5 22 -20 48 -11 29 11
-14 17 -71 18 -87 2z"/>
<path d="M3658 1653 c16 -6 17 -144 0 -161 -9 -9 -2 -12 32 -11 25 0 39 3 33
6 -9 3 -13 30 -13 83 0 53 4 80 13 83 6 3 -8 5 -33 5 -25 0 -39 -2 -32 -5z"/>
<path d="M3766 1641 c-25 -28 -12 -57 35 -82 31 -15 40 -25 37 -42 -4 -30 -43
-35 -58 -8 -13 26 -30 27 -30 2 0 -35 75 -44 103 -13 29 32 21 58 -25 84 -24
13 -44 31 -46 41 -5 24 28 34 43 14 16 -22 37 -22 33 1 -5 26 -69 29 -92 3z"/>
<path d="M3891 1633 l0 -28 16 23 c8 12 22 22 29 22 19 0 20 -156 2 -163 -7
-3 7 -5 32 -5 25 0 39 2 33 5 -19 7 -18 163 1 163 7 0 21 -10 29 -22 l16 -23
0 28 1 27 -80 0 -80 0 1 -27z"/>
<path d="M4074 1644 c11 -10 16 -34 16 -74 0 -40 -5 -64 -16 -74 -14 -15 -9
-16 60 -16 69 0 76 2 76 20 0 23 -15 27 -24 5 -3 -9 -18 -15 -36 -15 -28 0
-30 2 -30 39 0 37 2 40 33 44 l32 4 -32 1 c-31 2 -33 5 -33 37 0 31 3 35 25
35 14 0 28 -7 31 -15 9 -22 24 -18 24 5 0 18 -7 20 -71 20 -64 0 -69 -1 -55
-16z"/>
<path d="M4238 1653 c16 -6 17 -144 0 -161 -9 -9 -5 -12 21 -12 29 0 31 1 17
16 -17 16 -23 124 -8 124 4 0 18 -31 31 -70 12 -38 25 -70 30 -70 4 0 19 35
33 78 l26 77 1 -72 c1 -48 -3 -73 -11 -76 -7 -3 7 -5 32 -5 25 0 39 2 33 5 -9
3 -13 30 -13 83 0 53 4 80 13 83 6 3 -5 6 -25 6 -35 1 -37 -1 -53 -51 -10 -29
-21 -57 -25 -61 -3 -4 -15 20 -25 53 -18 59 -19 60 -54 59 -20 0 -30 -3 -23
-6z"/>
<path d="M428 1303 c8 -3 12 -30 12 -83 0 -53 -4 -80 -12 -83 -7 -3 10 -5 37
-5 28 0 42 2 33 5 -25 6 -25 63 0 63 29 0 62 29 62 55 0 35 -36 55 -95 54 -27
0 -44 -3 -37 -6z m76 -9 c22 -8 22 -70 0 -78 -24 -9 -24 -9 -24 39 0 48 0 48
24 39z"/>
<path d="M588 1303 c8 -3 12 -30 12 -83 0 -53 -4 -80 -12 -83 -7 -3 7 -5 32
-5 25 0 39 2 33 5 -15 5 -18 76 -4 71 6 -1 20 -19 33 -38 14 -21 34 -36 48
-38 l25 -4 -21 24 c-34 37 -46 65 -30 71 23 9 26 47 5 68 -15 15 -32 19 -76
18 -32 0 -52 -3 -45 -6z m96 -25 c13 -21 -2 -51 -28 -56 -13 -3 -16 5 -16 38
0 33 3 41 16 38 9 -2 22 -11 28 -20z"/>
<path d="M792 1287 c-33 -35 -31 -109 4 -136 60 -47 134 -8 134 69 0 79 -87
121 -138 67z m86 1 c7 -7 12 -38 12 -70 0 -53 -2 -60 -25 -70 -38 -17 -59 8
-59 71 0 69 37 104 72 69z"/>
<path d="M993 1286 c-22 -19 -28 -32 -28 -66 0 -34 6 -47 28 -66 44 -37 117
-31 117 10 0 12 5 27 12 34 9 9 3 12 -27 12 -26 0 -35 -3 -27 -9 18 -11 11
-55 -8 -59 -27 -5 -51 22 -56 63 -9 71 35 117 76 80 22 -20 47 -11 29 11 -19
23 -84 17 -116 -10z"/>
<path d="M1164 1294 c11 -10 16 -34 16 -74 0 -40 -5 -64 -16 -74 -14 -15 -12
-16 27 -16 34 0 40 3 31 12 -14 14 -16 68 -3 68 5 0 19 -15 30 -34 25 -41 38
-46 99 -45 26 0 41 3 35 6 -7 2 -13 16 -13 29 0 23 3 25 37 22 28 -2 39 -8 41
-22 2 -10 -2 -22 -10 -27 -8 -6 2 -9 28 -9 l42 0 -19 38 c-11 20 -27 61 -36
90 -25 78 -44 70 -80 -30 -34 -93 -54 -105 -85 -52 -18 30 -18 33 -1 63 18 32
18 32 -6 52 -17 14 -38 19 -78 19 -49 0 -53 -1 -39 -16z m90 -16 c13 -21 -2
-51 -28 -56 -13 -3 -16 5 -16 38 0 33 3 41 16 38 9 -2 22 -11 28 -20z m172
-46 c6 -30 5 -32 -21 -32 -21 0 -26 4 -21 16 3 9 9 27 12 41 8 30 21 19 30
-25z"/>
<path d="M1534 1295 c22 -22 22 -127 0 -149 -14 -15 -12 -16 17 -16 26 0 30 3
21 12 -7 7 -12 39 -11 78 l0 65 28 -73 c15 -40 31 -74 36 -75 5 -1 18 28 30
65 11 37 23 70 28 74 4 4 7 -22 7 -57 0 -37 -5 -70 -12 -77 -9 -9 -3 -12 27
-12 30 0 36 3 27 12 -16 16 -16 140 0 156 9 9 4 12 -23 12 -35 0 -36 -1 -53
-61 -9 -34 -19 -59 -21 -57 -3 3 -13 29 -23 59 -18 52 -21 54 -57 57 -35 3
-37 2 -21 -13z"/>
<path d="M1846 1291 c-25 -28 -12 -57 35 -82 31 -15 40 -25 37 -42 -4 -30 -43
-35 -58 -8 -13 26 -30 27 -30 2 0 -35 75 -44 103 -13 29 32 21 58 -25 84 -24
13 -44 31 -46 41 -5 24 28 34 43 14 16 -22 37 -22 33 1 -5 26 -69 29 -92 3z"/>
<path d="M1971 1283 l0 -28 16 23 c8 12 22 22 29 22 19 0 20 -156 2 -163 -7
-3 7 -5 32 -5 25 0 39 2 33 5 -19 7 -18 163 1 163 7 0 21 -10 29 -22 l16 -23
0 28 1 27 -80 0 -80 0 1 -27z"/>
<path d="M2148 1303 c8 -3 12 -26 12 -67 0 -75 18 -106 61 -106 59 0 69 13 69
90 0 55 4 71 18 79 13 8 9 10 -23 10 -32 0 -36 -2 -22 -10 23 -14 24 -120 1
-143 -19 -19 -36 -20 -52 -4 -16 16 -16 145 1 151 6 3 -8 5 -33 5 -25 0 -39
-2 -32 -5z"/>
<path d="M2338 1303 c8 -3 12 -30 12 -83 0 -53 -4 -80 -12 -83 -7 -3 12 -6 43
-6 42 -1 63 4 82 19 49 39 44 125 -9 149 -14 6 -48 11 -77 10 -29 0 -46 -3
-39 -6z m102 -23 c40 -40 13 -139 -37 -140 -9 0 -13 23 -13 80 0 87 10 100 50
60z"/>
<path d="M2533 1299 c13 -8 17 -24 17 -79 0 -55 -4 -71 -17 -79 -14 -8 -7 -10
32 -10 39 0 46 2 33 10 -14 8 -18 24 -18 79 0 55 4 71 18 79 13 8 6 10 -33 10
-39 0 -46 -2 -32 -10z"/>
<path d="M2704 1294 c11 -10 16 -34 16 -74 0 -40 -5 -64 -16 -74 -14 -15 -12
-16 27 -16 34 0 40 3 31 12 -16 16 -16 140 0 156 9 9 3 12 -31 12 -39 0 -41
-1 -27 -16z"/>
<path d="M2804 1294 c11 -10 16 -34 16 -74 0 -40 -5 -64 -16 -74 -14 -15 -12
-16 17 -16 26 0 30 3 21 12 -7 7 -12 39 -12 72 l0 60 50 -69 c28 -39 55 -71
60 -73 6 -2 10 28 10 77 0 66 3 82 18 90 14 8 9 10 -22 11 -35 0 -38 -2 -22
-13 13 -10 17 -24 14 -62 l-3 -50 -45 62 c-37 51 -50 63 -73 63 -26 0 -27 -1
-13 -16z"/>
<path d="M3004 1294 c11 -10 16 -34 16 -74 0 -40 -5 -64 -16 -74 -14 -15 -11
-16 33 -16 37 1 44 3 31 11 -11 6 -18 22 -18 39 0 27 3 30 33 31 l32 1 -30 7
c-26 5 -30 11 -33 44 -3 34 -1 37 23 37 14 0 28 -7 31 -15 9 -22 24 -18 24 5
0 18 -7 20 -71 20 -64 0 -69 -1 -55 -16z"/>
<path d="M3182 1287 c-33 -35 -31 -109 4 -136 60 -47 134 -8 134 69 0 79 -87
121 -138 67z m86 1 c7 -7 12 -38 12 -70 0 -53 -2 -60 -25 -70 -38 -17 -59 8
-59 71 0 69 37 104 72 69z"/>
<path d="M3358 1303 c16 -6 17 -144 0 -161 -9 -9 -2 -12 32 -11 25 0 39 3 33
6 -14 5 -18 73 -5 73 4 0 16 -15 27 -32 22 -39 33 -48 60 -48 17 1 18 2 5 13
-8 7 -23 25 -33 40 -17 26 -17 30 -3 46 22 24 20 58 -3 71 -11 5 -44 10 -73 9
-29 0 -47 -3 -40 -6z m87 -43 c0 -25 -5 -36 -17 -38 -15 -3 -18 4 -18 38 0 34
3 41 18 38 12 -2 17 -13 17 -38z"/>
<path d="M3538 1303 c16 -6 17 -144 0 -161 -9 -9 -5 -12 21 -12 29 0 31 1 17
16 -17 16 -23 124 -8 124 4 0 18 -31 31 -70 12 -38 25 -70 30 -70 4 0 19 35
33 78 l26 77 1 -72 c1 -48 -3 -73 -11 -76 -7 -3 7 -5 32 -5 25 0 39 2 33 5 -9
3 -13 30 -13 83 0 53 4 80 13 83 6 3 -5 6 -25 6 -35 1 -37 -1 -53 -51 -10 -29
-21 -57 -25 -61 -3 -4 -15 20 -25 53 -18 59 -19 60 -54 59 -20 0 -30 -3 -23
-6z"/>
<path d="M3827 1278 c-8 -18 -20 -51 -27 -73 -7 -22 -19 -48 -28 -57 -14 -17
-13 -18 19 -18 23 0 30 3 20 9 -8 5 -11 16 -6 30 9 29 70 30 78 2 2 -11 0 -24
-6 -30 -8 -8 2 -11 33 -11 34 1 41 3 29 10 -9 5 -20 21 -23 35 -16 64 -49 135
-62 135 -7 0 -20 -15 -27 -32z m37 -50 c6 -25 4 -28 -19 -28 -28 0 -29 4 -14
50 13 35 21 29 33 -22z"/>
<path d="M3951 1283 l0 -28 16 23 c8 12 22 22 29 22 19 0 20 -156 2 -163 -7
-3 7 -5 32 -5 25 0 39 2 33 5 -19 7 -18 163 1 163 7 0 21 -10 29 -22 l16 -23
0 28 1 27 -80 0 -80 0 1 -27z"/>
<path d="M4134 1294 c11 -10 16 -34 16 -74 0 -40 -5 -64 -16 -74 -14 -15 -12
-16 27 -16 34 0 40 3 31 12 -16 16 -16 140 0 156 9 9 3 12 -31 12 -39 0 -41
-1 -27 -16z"/>
<path d="M4233 1299 c13 -8 17 -24 17 -79 0 -55 -4 -71 -17 -79 -14 -8 -7 -10
32 -10 39 0 46 2 33 10 -19 10 -25 54 -9 63 5 4 19 -9 30 -28 25 -40 38 -46
98 -46 37 0 43 2 34 14 -19 23 -2 46 34 46 26 0 35 -5 40 -21 5 -14 2 -25 -6
-30 -9 -6 1 -9 30 -9 39 0 42 2 30 16 -8 9 -26 49 -40 88 -15 40 -33 72 -42
74 -10 2 -23 -19 -42 -70 -30 -79 -47 -104 -64 -94 -6 4 -24 27 -41 50 l-29
44 35 36 35 36 -30 0 c-23 0 -29 -4 -24 -16 5 -15 -32 -64 -49 -64 -16 0 -8
59 10 69 13 8 6 10 -33 10 -39 0 -46 -2 -32 -10z m277 -86 c0 -7 -12 -13 -26
-13 -20 0 -25 4 -20 16 3 9 9 28 13 42 l6 27 13 -30 c7 -16 13 -36 14 -42z"/>
</g>
</svg>
